<svg xmlns="http://www.w3.org/2000/svg" version="1.1" xmlns:xlink="http://www.w3.org/1999/xlink" svgjs="http://svgjs.com/svgjs" width="1440" height="560" preserveAspectRatio="none" viewBox="0 0 1440 560"><g mask="url(&quot;#SvgjsMask1031&quot;)" fill="none"><path d="M1214.105,442.967C1258.25,441.202,1288.756,402.695,1308.632,363.238C1326.257,328.25,1327.587,288.338,1309.506,253.583C1289.794,215.693,1256.816,181.521,1214.105,181.537C1171.414,181.553,1140.029,216.6,1118.83,253.656C1097.815,290.39,1086.484,333.557,1105.509,371.36C1126.401,412.872,1167.669,444.824,1214.105,442.967" fill="rgba(38, 68, 123, 0.43)" class="triangle-float2"></path><path d="M1144.313592574605 379.542689274302L1194.2730199139003 497.23972436678014 1262.010627667083 329.5832619350068z" fill="rgba(38, 68, 123, 0.43)" class="triangle-float3"></path><path d="M1101.134891860622 141.76570474737085L1147.6295590572088 241.47384031723993 1247.337694627078 194.9791731206531 1200.843027430491 95.27103755078402z" fill="rgba(38, 68, 123, 0.43)" class="triangle-float2"></path><path d="M658.882,540.418C697.024,539.868,733.96,525.029,754.483,492.874C776.671,458.109,784.958,412.46,762.717,377.729C741.658,344.843,697.931,343.963,658.882,343.586C618.849,343.2,573.588,342.29,551.519,375.693C527.846,411.524,534.934,459.723,558.383,495.701C579.841,528.624,619.588,540.985,658.882,540.418" fill="rgba(38, 68, 123, 0.43)" class="triangle-float3"></path><path d="M1158.8893485600395 348.7005947420373L1039.7263485044011 406.67975845009096 1134.6192472105906 473.1244814467351z" fill="rgba(38, 68, 123, 0.43)" class="triangle-float3"></path><path d="M38.16515912812978 524.7218465251012L135.21187802156163 409.06607063437343-77.49061676259805 427.6751276316694z" fill="rgba(38, 68, 123, 0.43)" class="triangle-float3"></path><path d="M921.357,311.192C938.743,310.898,956.694,305.707,965.511,290.72C974.431,275.557,970.869,256.953,962.308,241.585C953.469,225.719,939.515,211.86,921.357,211.462C902.624,211.051,886.567,223.505,877.172,239.718C867.748,255.98,864.653,276.273,874.536,292.26C884.024,307.607,903.317,311.497,921.357,311.192" fill="rgba(38, 68, 123, 0.43)" class="triangle-float3"></path><path d="M953.686279518704 486.22194506519776L1009.329437697503 467.06246921359264 952.7686448306957 393.17746987119676z" fill="rgba(38, 68, 123, 0.43)" class="triangle-float3"></path><path d="M1436.9589482440726 424.9938814268206L1270.9020170279857 439.5219804081324 1285.4301160092973 605.5789116242194 1451.4870472253845 591.0508126429077z" fill="rgba(38, 68, 123, 0.43)" class="triangle-float3"></path></g><defs><mask id="SvgjsMask1031"><rect width="1440" height="560" fill="#ffffff"></rect></mask><style>
            @keyframes float1 {
                0%{transform: translate(0, 0)}
                50%{transform: translate(-10px, 0)}
                100%{transform: translate(0, 0)}
            }

            .triangle-float1 {
                animation: float1 5s infinite;
            }

            @keyframes float2 {
                0%{transform: translate(0, 0)}
                50%{transform: translate(-5px, -5px)}
                100%{transform: translate(0, 0)}
            }

            .triangle-float2 {
                animation: float2 4s infinite;
            }

            @keyframes float3 {
                0%{transform: translate(0, 0)}
                50%{transform: translate(0, -10px)}
                100%{transform: translate(0, 0)}
            }

            .triangle-float3 {
                animation: float3 6s infinite;
            }
        </style></defs></svg>